<svg width="170" height="40" viewBox="0 0 170 40" fill="none" xmlns="http://www.w3.org/2000/svg">
<path d="M28.8798 10.3393L28.8052 35.2829L32.8106 35.2944L32.8336 27.7156H45.2789V10.3546H32.6919L28.8779 10.3393H28.8798ZM41.2734 14.3594V23.7108H32.8451L32.8738 14.3594H41.2734Z" fill="#1D1D1D"/>
<path d="M64.5977 23.9232H52.4703V20.7665H64.5173V10.0061H48.4648V27.928H64.5997V23.9232H64.5977ZM60.5099 14.0109V16.7598H52.4684V14.0109H60.5099Z" fill="#1D1D1D"/>
<path d="M71.5992 14.0109H82.1202V10.0061H67.5918V27.928H82.2026V23.9232H71.5992V14.0109Z" fill="#1D1D1D"/>
<path d="M91.9825 14.2388H97.5101V10.2321H91.9825V4.7074H87.977V10.2321H84.5957V14.2388H87.977V28.133H97.6116V24.1282H91.9825V14.2388Z" fill="#1D1D1D"/>
<path d="M103.943 12.5212V10.3255H99.9355V27.9373H103.943V17.5482L107.927 14.5255H111.513V10.5208H106.579L103.943 12.5212Z" fill="#1D1D1D"/>
<path d="M125.659 23.8219H117.811V10.2244H113.805V27.8266H129.664V10.2244H125.659V23.8219Z" fill="#1D1D1D"/>
<path d="M132.638 10.1578V27.8346H136.643V14.1625H143.434V27.938H147.44V14.1625H153.791V27.7332H157.796V10.1578H132.638Z" fill="#1D1D1D"/>
<path d="M24.8102 19.4853H24.7853C24.6417 17.1786 23.9447 14.9388 22.7481 12.969C21.7276 11.2901 20.2629 9.93668 18.5129 9.05801C17.9634 8.78234 17.4273 8.55837 16.918 8.39182C16.5025 8.2559 16.0947 8.15444 15.7079 8.09127L15.0473 7.98407L14.3657 12.1918L15.0263 12.299C15.1948 12.3258 15.3843 12.3736 15.5911 12.4425C15.9013 12.544 16.2402 12.6876 16.6001 12.8675C17.634 13.3863 18.5014 14.1865 19.1045 15.18C20.0312 16.7076 20.5309 18.4669 20.5501 20.2549C20.5328 22.0563 20.0312 23.8155 19.1045 25.3432C18.5014 26.3367 17.636 27.1369 16.6001 27.6557C15.997 27.9581 15.4532 28.1553 15.0263 28.2242L14.3657 28.3314L15.0493 32.5391L15.7098 32.4319C16.5714 32.2922 17.5153 31.9667 18.5148 31.4652C20.2667 30.5865 21.7314 29.2331 22.75 27.5542C23.9447 25.5844 24.6436 23.3446 24.7872 21.0378H24.8159V20.1515L24.8121 19.4815L24.8102 19.4853Z" fill="#1D1D1D"/>
<path d="M0 32.7416H8.23685V28.532H4.21033V11.996H8.23685V7.78644H0V32.7416Z" fill="#1D1D1D"/>
</svg>
