<svg width="60" height="60" viewBox="0 0 60 60" fill="none" xmlns="http://www.w3.org/2000/svg">
<rect x="0.5" y="0.5" width="59" height="59" rx="29.5" fill="white" stroke="#F2F2F2"/>
<mask id="path-2-inside-1_5_314" fill="white">
<path fill-rule="evenodd" clip-rule="evenodd" d="M27.3969 14H16.1562V14.0041V19.5034V40.5V46.0034V46.0078H21.4178V46.0034H27.3969V40.5H21.4178V19.5034H27.3969V14Z"/>
</mask>
<path fill-rule="evenodd" clip-rule="evenodd" d="M27.3969 14H16.1562V14.0041V19.5034V40.5V46.0034V46.0078H21.4178V46.0034H27.3969V40.5H21.4178V19.5034H27.3969V14Z" fill="black"/>
<path d="M16.1562 14V13H15.1562V14H16.1562ZM27.3969 14H28.3969V13H27.3969V14ZM16.1562 46.0078H15.1562V47.0078H16.1562V46.0078ZM21.4178 46.0078V47.0078H22.4178V46.0078H21.4178ZM21.4178 46.0034V45.0034H20.4178V46.0034H21.4178ZM27.3969 46.0034V47.0034H28.3969V46.0034H27.3969ZM27.3969 40.5H28.3969V39.5H27.3969V40.5ZM21.4178 40.5H20.4178V41.5H21.4178V40.5ZM21.4178 19.5034V18.5034H20.4178V19.5034H21.4178ZM27.3969 19.5034V20.5034H28.3969V19.5034H27.3969ZM16.1562 15H27.3969V13H16.1562V15ZM17.1562 14.0041V14H15.1562V14.0041H17.1562ZM15.1562 14.0041V19.5034H17.1562V14.0041H15.1562ZM15.1562 19.5034V40.5H17.1562V19.5034H15.1562ZM15.1562 40.5V46.0034H17.1562V40.5H15.1562ZM15.1562 46.0034V46.0078H17.1562V46.0034H15.1562ZM16.1562 47.0078H21.4178V45.0078H16.1562V47.0078ZM22.4178 46.0078V46.0034H20.4178V46.0078H22.4178ZM27.3969 45.0034H21.4178V47.0034H27.3969V45.0034ZM26.3969 40.5V46.0034H28.3969V40.5H26.3969ZM21.4178 41.5H27.3969V39.5H21.4178V41.5ZM22.4178 40.5V19.5034H20.4178V40.5H22.4178ZM27.3969 18.5034H21.4178V20.5034H27.3969V18.5034ZM26.3969 14V19.5034H28.3969V14H26.3969Z" fill="black" mask="url(#path-2-inside-1_5_314)"/>
<path d="M46.8931 30.0361C46.8931 37.6028 41.6328 43.7795 34.5522 45.4096L33.7326 40.4835C38.4761 39.2983 41.8753 35.1554 41.8753 30.0361C41.8753 24.919 38.4258 20.6698 33.7251 19.4393L34.5207 14.5978C41.615 16.2215 46.8931 22.4582 46.8931 30.0361Z" fill="black" stroke="black"/>
<rect opacity="0.7" x="35.9297" y="9" width="15.0667" height="11.7748" rx="5.88741" fill="#FF5D65"/>
<circle cx="39.7932" cy="14.887" r="0.949459" fill="white"/>
<circle cx="43.4651" cy="14.887" r="0.949459" fill="white"/>
<circle cx="47.1331" cy="14.887" r="0.949459" fill="white"/>
</svg>
