<svg width="110" height="110" viewBox="0 0 110 110" fill="none" xmlns="http://www.w3.org/2000/svg">
<path d="M30.5557 21.6102C30.5557 19.9534 31.8988 18.6102 33.5557 18.6102H76.4446C78.1014 18.6102 79.4446 19.9534 79.4446 21.6102V78.9575H30.5557V21.6102Z" fill="#F2F2F2" stroke="black" stroke-width="2.5"/>
<path d="M79.4443 88.3038C79.4443 89.9607 78.1012 91.3038 76.4443 91.3038L33.5554 91.3038C31.8986 91.3038 30.5554 89.9607 30.5554 88.3038L30.5554 76.6372L79.4443 76.6372L79.4443 88.3038Z" fill="#999999" stroke="black" stroke-width="2.5"/>
<path d="M83.798 100.674C92.7825 100.674 100.066 93.3911 100.066 84.4067C100.066 75.4222 92.7825 68.1389 83.798 68.1389C74.8136 68.1389 67.5303 75.4222 67.5303 84.4067C67.5303 93.3911 74.8136 100.674 83.798 100.674Z" fill="#494A4E" stroke="black" stroke-width="2.5" stroke-linecap="round"/>
<path d="M83.7979 65.6945V84.4067H102.51C102.51 94.7406 94.1318 103.119 83.7979 103.119C73.464 103.119 65.0857 94.7406 65.0857 84.4067C65.0857 74.0728 73.464 65.6945 83.7979 65.6945Z" fill="white" stroke="black" stroke-width="2.5"/>
<path d="M83.7981 84.4066L95.2992 72.9055" stroke="black" stroke-width="2.5" stroke-linecap="round"/>
<path d="M50.4883 83.9514L59.5083 83.9899" stroke="black" stroke-width="2.5" stroke-linecap="square"/>
</svg>
