<svg width="110" height="110" viewBox="0 0 110 110" fill="none" xmlns="http://www.w3.org/2000/svg">
<path d="M86.8324 20.4102H22.5715C21.6507 20.4102 20.9043 21.1566 20.9043 22.0773V36.1792C20.9043 37.1 21.6507 37.8464 22.5715 37.8464H86.8324C87.7531 37.8464 88.4995 37.1 88.4995 36.1792V22.0773C88.4995 21.1566 87.7531 20.4102 86.8324 20.4102Z" fill="#F2F2F2" stroke="black" stroke-width="2.5" stroke-miterlimit="10"/>
<path d="M32.7701 25.6666H26.5121C26.3274 25.6666 26.1777 25.8163 26.1777 26.001V32.259C26.1777 32.4436 26.3274 32.5933 26.5121 32.5933H32.7701C32.9547 32.5933 33.1045 32.4436 33.1045 32.259V26.001C33.1045 25.8163 32.9547 25.6666 32.7701 25.6666Z" fill="#999999" stroke="black" stroke-width="2" stroke-miterlimit="10"/>
<path d="M86.8324 37.8412H22.5715C21.6507 37.8412 20.9043 38.5876 20.9043 39.5084V53.6102C20.9043 54.531 21.6507 55.2774 22.5715 55.2774H86.8324C87.7531 55.2774 88.4995 54.531 88.4995 53.6102V39.5084C88.4995 38.5876 87.7531 37.8412 86.8324 37.8412Z" fill="#F2F2F2" stroke="black" stroke-width="2.5" stroke-miterlimit="10"/>
<path d="M32.7701 43.0977H26.5121C26.3274 43.0977 26.1777 43.2474 26.1777 43.4321V49.69C26.1777 49.8747 26.3274 50.0244 26.5121 50.0244H32.7701C32.9547 50.0244 33.1045 49.8747 33.1045 49.69V43.4321C33.1045 43.2474 32.9547 43.0977 32.7701 43.0977Z" fill="#999999" stroke="black" stroke-width="2" stroke-miterlimit="10"/>
<path d="M86.8324 55.2817H22.5715C21.6507 55.2817 20.9043 56.0282 20.9043 56.9489V71.0508C20.9043 71.9715 21.6507 72.718 22.5715 72.718H86.8324C87.7531 72.718 88.4995 71.9715 88.4995 71.0508V56.9489C88.4995 56.0282 87.7531 55.2817 86.8324 55.2817Z" fill="#F2F2F2" stroke="black" stroke-width="2.5" stroke-miterlimit="10"/>
<path d="M32.7701 60.5334H26.5121C26.3274 60.5334 26.1777 60.6832 26.1777 60.8678V67.1258C26.1777 67.3105 26.3274 67.4602 26.5121 67.4602H32.7701C32.9547 67.4602 33.1045 67.3105 33.1045 67.1258V60.8678C33.1045 60.6832 32.9547 60.5334 32.7701 60.5334Z" fill="#999999" stroke="black" stroke-width="2" stroke-miterlimit="10"/>
<path d="M23.48 85.6033H86.5179" stroke="black" stroke-width="2.5" stroke-linecap="square"/>
<path d="M54.7041 72.7174L54.7041 85.6059" stroke="black" stroke-width="2.5" stroke-linecap="square"/>
<path d="M88.6113 100.805C79.4981 100.805 72.1113 93.3959 72.1113 84.3188C72.1113 75.2417 79.5264 67.8047 88.6113 67.8047C97.6962 67.8047 105.111 75.2134 105.111 84.2905C105.111 93.3677 97.6962 100.776 88.6113 100.776V100.805Z" fill="#494A4E" stroke="black" stroke-width="2.5"/>
<g clip-path="url(#clip0_5_1112)">
<mask id="mask0_5_1112" style="mask-type:luminance" maskUnits="userSpaceOnUse" x="76" y="72" width="25" height="25">
<path d="M100.833 72.0825H76.3887V96.527H100.833V72.0825Z" fill="white"/>
</mask>
<g mask="url(#mask0_5_1112)">
<path d="M83.3906 91.5067C83.5791 91.6381 83.779 91.7694 83.9846 91.8894C84.3958 92.135 84.8242 92.3349 85.264 92.5005L85.5267 94.7165C85.5609 95.002 85.8008 95.2191 86.0921 95.2191L91.3751 95.2476C91.6606 95.2476 91.9062 95.0363 91.9462 94.7507L92.2603 92.3234C92.8771 92.0493 93.4654 91.7009 94.008 91.2954L96.0926 92.1921C96.3553 92.3063 96.6637 92.2035 96.8122 91.9579L99.4851 87.3889C99.6279 87.1376 99.5708 86.8234 99.3366 86.6464L97.5319 85.27C97.6347 84.5161 97.6347 83.7508 97.5433 82.9969L99.1824 81.7632C99.4109 81.5919 99.4794 81.272 99.3366 81.0265L96.7209 76.4403C96.5781 76.189 96.2697 76.0862 96.0069 76.1947L94.1622 76.96C93.4768 76.4231 92.7229 75.9891 91.9119 75.6635L91.6949 73.8816C91.6606 73.596 91.4208 73.3847 91.1295 73.379L85.8522 73.3447C85.5667 73.3447 85.3211 73.556 85.2811 73.8416L85.0355 75.7149C84.2131 76.0633 83.442 76.5259 82.751 77.0971L81.1233 76.4003C80.8605 76.2861 80.5521 76.3889 80.4036 76.6344L77.7421 81.1978C77.5994 81.4491 77.6622 81.7632 77.8906 81.9403L79.5298 83.1968C79.4498 84.0078 79.4841 84.8245 79.6269 85.6241L77.685 87.0747C77.4394 87.2575 77.3823 87.6002 77.5537 87.8515L80.4893 92.2092C80.6435 92.432 80.9291 92.5233 81.1804 92.4205L83.3792 91.5124L83.3906 91.5067Z" fill="white" stroke="black" stroke-width="2" stroke-linecap="round"/>
<path d="M88.6111 87.3592C90.3016 87.3592 91.6723 85.9885 91.6723 84.298C91.6723 82.6074 90.3016 81.2367 88.6111 81.2367C86.9205 81.2367 85.5498 82.6074 85.5498 84.298C85.5498 85.9885 86.9205 87.3592 88.6111 87.3592Z" fill="#404145" stroke="black" stroke-width="2" stroke-linecap="round" stroke-linejoin="round"/>
</g>
</g>
<defs>
<clipPath id="clip0_5_1112">
<rect width="24.4444" height="24.4444" fill="white" transform="translate(76.3887 72.0825)"/>
</clipPath>
</defs>
</svg>
